<?xml version="1.0" encoding="UTF-8" standalone="no"?>
<svg
   xmlns:dc="http://purl.org/dc/elements/1.1/"
   xmlns:cc="http://creativecommons.org/ns#"
   xmlns:rdf="http://www.w3.org/1999/02/22-rdf-syntax-ns#"
   xmlns:svg="http://www.w3.org/2000/svg"
   xmlns="http://www.w3.org/2000/svg"
   xmlns:sodipodi="http://sodipodi.sourceforge.net/DTD/sodipodi-0.dtd"
   xmlns:inkscape="http://www.inkscape.org/namespaces/inkscape"
   viewBox="0 0 13916.702 15558"
   id="svg5817"
   version="1.1"
   sodipodi:docname="hulk.svg"
   width="13916.702"
   height="15558"
   style="clip-rule:evenodd;fill-rule:evenodd;image-rendering:optimizeQuality;shape-rendering:geometricPrecision;text-rendering:geometricPrecision"
   inkscape:version="0.92.1 r15371">
  <metadata
     id="metadata5121">
    <rdf:RDF>
      <cc:Work
         rdf:about="">
        <dc:format>image/svg+xml</dc:format>
        <dc:type
           rdf:resource="http://purl.org/dc/dcmitype/StillImage" />
      </cc:Work>
    </rdf:RDF>
  </metadata>
  <sodipodi:namedview
     pagecolor="#ffffff"
     bordercolor="#666666"
     borderopacity="1"
     objecttolerance="10"
     gridtolerance="10"
     guidetolerance="10"
     inkscape:pageopacity="0"
     inkscape:pageshadow="2"
     inkscape:window-width="1680"
     inkscape:window-height="988"
     id="namedview5119"
     showgrid="false"
     inkscape:zoom="0.011913175"
     inkscape:cx="-7815.7379"
     inkscape:cy="7864"
     inkscape:window-x="1912"
     inkscape:window-y="-8"
     inkscape:window-maximized="1"
     inkscape:current-layer="svg5817" />
  <defs
     id="defs5784">
    <style
       id="style5777">
      .fil3{fill:#000}.fil4{fill:#66a242}
    </style>
    <linearGradient
       id="id0"
       gradientUnits="userSpaceOnUse"
       x1="9905.0703"
       y1="990.51001"
       x2="9905.0703"
       y2="18819.6">
      <stop
         offset="0"
         id="stop5779"
         stop-color="#f68512" />
      <stop
         offset="1"
         id="stop5781"
         stop-color="#830e67" />
    </linearGradient>
  </defs>
  <g
     id="Layer_x0020_1"
     transform="translate(-2989.1489,-2211)">
    <path
       d="m 14265,12307 c -189,2 -378,3 -567,1 l 24,148 88,529 -5,1 c 35,236 68,472 98,709 35,278 62,557 85,836 l 7,-1 34,585 25,407 h -3 c 9,195 15,390 15,585 0,423 -149,837 -433,1153 -286,319 -684,509 -1115,509 -294,0 -578,-89 -821,-253 -234,-158 -421,-377 -546,-629 -50,-103 -85,-211 -120,-319 -39,-122 -76,-245 -112,-368 -21,-72 -42,-144 -64,-215 H 9045 c -21,71 -42,143 -64,215 -36,123 -72,246 -112,368 -34,108 -69,216 -120,318 -125,253 -311,472 -545,630 -244,164 -528,253 -822,253 -430,0 -829,-190 -1115,-509 -283,-316 -432,-730 -432,-1153 0,-194 5,-387 14,-580 l -3,-1 25,-403 34,-598 8,1 c 22,-277 50,-555 84,-831 30,-237 63,-473 98,-709 h -5 l 88,-529 24,-149 c -190,2 -381,1 -572,-1 -407,522 -1143,728 -1758,468 -732,-308 -1122,-1242 -724,-1953 273,-488 640,-891 1167,-1104 383,-155 735,-389 1085,-604 437,-268 885,-525 1380,-663 -89,-122 -169,-250 -241,-382 h -103 c -568,0 -1032,-464 -1032,-1033 v -228 c 0,-452 300,-912 735,-1055 v -196 c 0,-1841 1505,-3346 3347,-3346 h 928 c 1842,0 3347,1505 3347,3346 v 189 c 446,136 757,602 757,1062 v 228 c 0,569 -464,1033 -1032,1033 h -125 c -72,133 -153,261 -242,384 494,138 940,394 1375,661 351,215 703,449 1086,604 527,213 893,616 1167,1104 398,711 8,1645 -724,1953 -615,260 -1351,54 -1758,-468 z"
       id="path5789"
       inkscape:connector-curvature="0" />
    <g
       id="_636008448">
      <path
         class="fil3"
         d="m 9443,2443 c -1666,0 -3029,1363 -3029,3030 v 459 l -103,12 c -358,41 -632,418 -632,780 v 228 c 0,393 322,715 715,715 h 298 l 31,64 c 135,275 309,523 512,739 l -26,124 -88,13 c -582,91 -1102,389 -1597,693 -363,222 -737,468 -1132,628 -459,185 -772,541 -1009,964 -307,547 12,1271 570,1506 532,225 1178,2 1468,-495 373,4 746,9 1119,-8 -23,124 -44,249 -65,373 h -1 l -25,155 -32,190 h 1 c -55,345 -104,691 -148,1037 -50,394 -84,792 -111,1188 h -1 l -13,218 -8,135 c -15,276 -28,555 -28,831 0,345 121,684 352,942 226,252 538,403 879,403 231,0 453,-70 644,-199 188,-127 338,-304 438,-507 42,-84 74,-185 103,-275 39,-119 74,-240 110,-361 34,-114 67,-229 103,-344 l 20,-64 11,-34 h 2278 l 11,34 20,64 c 35,115 69,230 103,344 35,121 71,242 110,361 28,90 61,191 102,275 101,203 250,380 438,507 192,129 414,199 645,199 340,0 653,-151 879,-403 231,-258 351,-597 351,-942 0,-276 -12,-555 -28,-831 h 1 l -9,-141 -12,-212 h -2 c -26,-396 -61,-794 -110,-1188 -44,-346 -94,-692 -149,-1037 h 1 l -31,-190 -26,-155 c -21,-124 -43,-248 -65,-373 371,17 742,12 1113,8 290,497 936,720 1469,495 557,-235 876,-959 569,-1506 -237,-423 -550,-779 -1008,-964 -396,-160 -770,-406 -1133,-628 -433,-266 -884,-527 -1382,-649 -69,-17 -139,-31 -209,-43 l -88,-13 -26,-125 c 203,-216 376,-465 511,-739 l 33,-66 c 106,2 212,2 318,2 393,0 715,-322 715,-715 v -228 c 0,-369 -284,-749 -650,-782 l -106,-10 v -459 c 0,-1667 -1363,-3030 -3030,-3030 z"
         id="path5793"
         inkscape:connector-curvature="0"
         style="fill:#000000" />
      <path
         class="fil4"
         d="m 14533,11668 c -417,5 -859,14 -1299,-7 -30,-161 -60,-320 -91,-480 -152,-783 -319,-1563 -484,-2343 969,153 1784,946 2672,1305 409,165 684,488 893,863 239,426 -27,996 -457,1178 -430,182 -957,-5 -1185,-412 -19,-34 -35,-68 -49,-104 z m -9255,0 c 418,5 862,14 1304,-8 29,-160 60,-320 91,-479 151,-783 319,-1563 484,-2344 -972,151 -1788,946 -2678,1306 -409,165 -684,488 -893,863 -239,426 27,996 457,1178 431,182 958,-5 1185,-412 19,-34 36,-68 50,-104 z"
         id="path5795"
         inkscape:connector-curvature="0"
         style="fill:#66a242" />
      <path
         class="fil4"
         d="m 9908,9547 c 566,0 1006,12 1569,-201 343,-130 659,-319 934,-554 175,827 348,1628 504,2433 75,391 147,783 213,1179 -2143,189 -4297,196 -6440,0 66,-396 137,-788 213,-1179 156,-805 329,-1606 503,-2433 275,235 591,424 935,554 562,213 1003,201 1569,201 z m 3533,5580 c 21,360 33,682 33,895 0,307 -112,585 -293,787 -180,201 -430,325 -705,325 -188,0 -364,-58 -515,-159 -150,-101 -274,-245 -359,-417 -50,-100 -124,-348 -198,-599 -36,-120 -71,-241 -104,-346 h 53 z m -4925,486 c -33,105 -69,226 -104,346 -74,251 -149,499 -198,599 -85,172 -209,316 -360,417 -150,101 -326,159 -514,159 -276,0 -525,-124 -706,-325 -180,-202 -292,-480 -292,-787 0,-213 11,-535 32,-895 l 2078,486 z"
         id="path5797"
         inkscape:connector-curvature="0"
         style="fill:#66a242" />
      <path
         class="fil4"
         d="m 13169,5897 c -177,-544 -650,-982 -1243,-982 h -458 c -531,0 -540,221 -961,391 -317,128 -872,128 -1189,0 -421,-170 -429,-391 -960,-391 h -459 c -604,0 -1084,455 -1252,1014 v 472 c 0,1539 1258,2797 2796,2797 h 929 c 1538,0 2797,-1258 2797,-2797 z"
         id="path5799"
         inkscape:connector-curvature="0"
         style="fill:#66a242" />
      <path
         class="fil3"
         d="m 8251,6816 282,376 c -82,61 -180,93 -282,93 -259,0 -469,-210 -469,-469 0,-259 210,-469 469,-469 195,0 370,121 439,304 z"
         id="path5801"
         inkscape:connector-curvature="0"
         style="fill:#000000" />
      <path
         class="fil3"
         d="m 11663,6816 282,376 c -81,61 -180,93 -282,93 -259,0 -469,-210 -469,-469 0,-259 210,-469 469,-469 196,0 370,121 439,304 z"
         id="path5803"
         inkscape:connector-curvature="0"
         style="fill:#000000" />
      <path
         class="fil3"
         d="m 7809,5659 -271,312 1604,622 -131,-807 -309,96 218,400 z m 3373,223 -309,-96 -131,807 1604,-622 -271,-312 -1111,623 z"
         id="path5805"
         inkscape:connector-curvature="0"
         style="fill:#000000" />
      <path
         class="fil3"
         d="m 8547,8686 h 2762 l 2,-44 c 0,-623 -619,-1127 -1383,-1127 -763,0 -1382,504 -1382,1127 z"
         id="path5807"
         inkscape:connector-curvature="0"
         style="fill:#000000" />
      <path
         class="fil4"
         d="m 13183,7550 h 144 c 329,0 599,-269 599,-598 v -228 c 0,-304 -230,-557 -524,-594 v 271 c 0,405 -78,793 -219,1149 z"
         id="path5809"
         inkscape:connector-curvature="0"
         style="fill:#66a242" />
      <path
         class="fil4"
         d="m 6391,6133 c -284,46 -503,294 -503,591 v 228 c 0,329 270,598 599,598 h 122 C 6468,7194 6391,6806 6391,6401 Z"
         id="path5811"
         inkscape:connector-curvature="0"
         style="fill:#66a242" />
      <path
         d="m 6501,13679 c -50,391 -89,854 -117,1281 -1,16 -2,33 -3,49 l 2085,487 h 87 c 20,-60 38,-111 53,-146 h 2603 c 16,35 34,86 54,146 h 77 l 2094,-487 c -1,-16 -2,-33 -3,-49 -27,-427 -67,-890 -116,-1281 -50,-393 -106,-779 -168,-1160 -2147,190 -4306,199 -6478,0 -62,382 -119,767 -168,1160 z"
         id="path5813"
         inkscape:connector-curvature="0"
         style="fill:#403266" />
    </g>
  </g>
</svg>
