<?xml version="1.0" encoding="UTF-8" standalone="no"?>
<svg
   xmlns:dc="http://purl.org/dc/elements/1.1/"
   xmlns:cc="http://creativecommons.org/ns#"
   xmlns:rdf="http://www.w3.org/1999/02/22-rdf-syntax-ns#"
   xmlns:svg="http://www.w3.org/2000/svg"
   xmlns="http://www.w3.org/2000/svg"
   xmlns:sodipodi="http://sodipodi.sourceforge.net/DTD/sodipodi-0.dtd"
   xmlns:inkscape="http://www.inkscape.org/namespaces/inkscape"
   viewBox="0 0 12880.859 15586"
   id="svg5228"
   version="1.1"
   sodipodi:docname="ironMan.svg"
   width="12880.859"
   height="15586"
   style="clip-rule:evenodd;fill-rule:evenodd;image-rendering:optimizeQuality;shape-rendering:geometricPrecision;text-rendering:geometricPrecision"
   inkscape:version="0.92.1 r15371">
  <metadata
     id="metadata5690">
    <rdf:RDF>
      <cc:Work
         rdf:about="">
        <dc:format>image/svg+xml</dc:format>
        <dc:type
           rdf:resource="http://purl.org/dc/dcmitype/StillImage" />
      </cc:Work>
    </rdf:RDF>
  </metadata>
  <sodipodi:namedview
     pagecolor="#ffffff"
     bordercolor="#666666"
     borderopacity="1"
     objecttolerance="10"
     gridtolerance="10"
     guidetolerance="10"
     inkscape:pageopacity="0"
     inkscape:pageshadow="2"
     inkscape:window-width="1680"
     inkscape:window-height="988"
     id="namedview5688"
     showgrid="false"
     inkscape:zoom="0.011913175"
     inkscape:cx="6397.9298"
     inkscape:cy="7878"
     inkscape:window-x="1912"
     inkscape:window-y="-8"
     inkscape:window-maximized="1"
     inkscape:current-layer="svg5228" />
  <defs
     id="defs5191">
    <style
       id="style5184">
      .fil3{fill:#000}.fil4{fill:#d3402a}.fil6{fill:#f2d752}.fil2{fill:#fff}
    </style>
    <linearGradient
       id="id0"
       gradientUnits="userSpaceOnUse"
       x1="9905.0703"
       y1="990.51001"
       x2="9905.0703"
       y2="18819.6">
      <stop
         offset="0"
         id="stop5186"
         stop-color="#f68512" />
      <stop
         offset="1"
         id="stop5188"
         stop-color="#830e67" />
    </linearGradient>
  </defs>
  <g
     id="Layer_x0020_1"
     transform="translate(-3507.0702,-2197)">
    <path
       d="m 6234,12189 c -102,14 -205,26 -308,37 -316,543 -995,813 -1597,615 -320,-105 -579,-332 -717,-640 -144,-318 -138,-678 7,-995 158,-345 634,-707 936,-935 129,-97 260,-192 391,-286 l 99,-69 C 5627,9507 6226,9125 6817,8731 6318,8118 6045,7356 6045,6564 v -923 c 0,-1896 1549,-3444 3444,-3444 h 923 c 1895,0 3444,1548 3444,3444 v 923 c 0,794 -274,1557 -774,2170 590,393 1187,774 1767,1182 l 99,69 c 132,94 263,189 392,286 301,228 778,590 936,935 145,317 151,677 7,995 -138,308 -397,535 -717,640 -602,198 -1281,-72 -1597,-615 -101,-11 -202,-23 -303,-36 85,512 150,1027 215,1542 36,282 63,565 86,848 41,516 76,1032 76,1550 0,863 -643,1653 -1539,1653 -590,0 -1102,-356 -1360,-878 -51,-102 -86,-211 -121,-320 -39,-123 -76,-246 -112,-370 -20,-69 -41,-138 -61,-206 H 9051 c -21,68 -41,137 -61,206 -37,124 -73,247 -113,370 -35,109 -70,218 -120,320 -258,522 -771,878 -1360,878 -896,0 -1539,-790 -1539,-1653 0,-518 34,-1034 76,-1550 23,-283 50,-566 86,-848 65,-516 130,-1031 214,-1543 z"
       id="path5196"
       inkscape:connector-curvature="0" />
    <g
       id="_819838336">
      <path
         class="fil3"
         d="m 9446,2428 h 924 c 1721,0 3128,1407 3128,3128 v 923 c 0,853 -346,1628 -903,2193 l 35,166 c 59,-13 122,-1 176,35 607,406 1222,797 1819,1216 33,23 66,47 98,69 129,92 258,185 384,281 238,180 714,541 839,813 222,486 -10,1037 -521,1205 -493,161 -1056,-91 -1271,-562 -8,-17 -15,-34 -21,-51 -280,-24 -560,-62 -836,-107 -22,-3 -43,-9 -62,-18 124,651 207,1309 290,1967 35,278 62,556 84,835 41,501 76,1022 76,1524 0,690 -505,1337 -1223,1337 -469,0 -872,-287 -1077,-701 -42,-85 -74,-187 -103,-277 -39,-121 -75,-242 -110,-363 -35,-117 -69,-233 -105,-349 -8,-27 -17,-55 -26,-84 H 8775 c -9,29 -18,57 -26,84 -36,116 -70,232 -104,349 -36,121 -72,242 -111,363 -29,90 -61,192 -103,277 -205,414 -608,701 -1077,701 -718,0 -1223,-647 -1223,-1337 0,-502 35,-1023 76,-1524 22,-279 49,-557 84,-835 83,-659 167,-1318 291,-1970 -21,10 -44,17 -68,21 -277,45 -557,83 -836,107 -7,17 -14,34 -22,51 -215,471 -778,723 -1271,562 -510,-168 -743,-719 -521,-1205 125,-272 601,-633 839,-813 127,-96 255,-189 384,-281 32,-22 65,-46 98,-69 597,-419 1212,-810 1819,-1216 56,-37 121,-48 182,-33 l 35,-168 C 6664,8107 6318,7332 6318,6479 v -923 c 0,-1721 1408,-3128 3128,-3128 z"
         id="path5200"
         inkscape:connector-curvature="0"
         style="fill:#000000" />
      <path
         class="fil4"
         d="m 9446,2659 h 924 c 1593,0 2896,1304 2896,2897 v 923 c 0,1593 -1303,2897 -2896,2897 H 9446 C 7853,9376 6550,8072 6550,6479 v -923 c 0,-1593 1303,-2897 2896,-2897 z"
         id="path5202"
         inkscape:connector-curvature="0"
         style="fill:#d3402a" />
      <path
         class="fil3"
         d="m 9128,2910 c -645,77 -1221,388 -1642,845 -51,607 -531,2184 -701,2875 79,1396 1246,2515 2661,2515 h 927 c 1415,0 2582,-1119 2661,-2515 -169,-691 -650,-2268 -701,-2875 -420,-457 -996,-768 -1642,-845 2,11 2,24 -1,36 l -179,1068 c -16,92 -77,170 -171,170 h -861 c -93,0 -155,-78 -170,-170 L 9129,2946 c -2,-12 -2,-25 -1,-36 z"
         id="path5204"
         inkscape:connector-curvature="0"
         style="fill:#000000" />
      <path
         d="m 12222,3805 c -382,-403 -883,-673 -1430,-764 l -167,992 c -25,145 -130,267 -285,267 h -861 c -154,0 -260,-122 -284,-267 l -167,-992 c -547,91 -1048,361 -1430,764 -21,207 -70,425 -116,625 -65,286 -139,571 -215,855 -121,451 -253,902 -365,1355 84,1335 1204,2389 2544,2389 h 927 c 1340,0 2460,-1054 2545,-2389 -112,-453 -245,-904 -365,-1355 -76,-284 -151,-569 -216,-855 -46,-200 -94,-418 -115,-625 z"
         id="path5206"
         inkscape:connector-curvature="0"
         style="fill:#f2d752" />
      <path
         class="fil4"
         d="m 14589,10347 c 133,94 260,187 379,277 393,296 692,560 768,724 167,367 -4,764 -383,889 -378,124 -821,-72 -989,-438 -27,-60 -45,-120 -55,-180 l -20,5 c -296,-21 -621,-61 -956,-115 z m -9368,0 c -132,94 -260,187 -379,277 -393,296 -692,560 -767,724 -168,367 3,764 382,889 379,124 821,-72 989,-438 27,-60 45,-120 55,-180 l 20,5 c 296,-21 621,-61 956,-115 z"
         id="path5208"
         inkscape:connector-curvature="0"
         style="fill:#d3402a" />
      <path
         class="fil6"
         d="m 8585,15450 c -27,75 -58,177 -92,289 l -2070,-607 -27,-5 c 26,-435 65,-923 116,-1341 l 2055,1631 z m 4719,-1664 c 51,418 90,908 116,1344 l -23,1 -2074,608 c -34,-114 -66,-217 -93,-292 l 18,-28 z"
         id="path5210"
         inkscape:connector-curvature="0"
         style="fill:#f2d752" />
      <path
         class="fil4"
         d="m 9908,9607 h 462 c 772,0 1480,-283 2027,-751 l 550,2604 c 95,446 167,900 229,1341 l -2586,-808 H 9228 l -2588,808 c 62,-441 134,-895 229,-1341 l 550,-2604 c 547,468 1255,751 2027,751 z m 3316,3550 c 23,169 44,335 64,497 h -14 c -705,561 -1411,1122 -2118,1681 l -26,42 H 8684 l -23,-41 -2117,-1680 -16,-1 c 20,-163 41,-329 64,-497 l 2684,-839 h 1266 z m 203,2095 c 17,318 26,600 26,793 0,611 -444,1106 -991,1106 -375,0 -701,-232 -870,-573 -57,-117 -149,-435 -234,-722 l 2058,-604 z m -4969,604 c -85,287 -177,605 -234,722 -169,341 -495,573 -870,573 -547,0 -991,-495 -991,-1106 0,-193 9,-476 26,-795 l 7,1 z"
         id="path5212"
         inkscape:connector-curvature="0"
         style="fill:#d3402a" />
      <path
         class="fil3"
         d="m 12193,5559 c 138,-6 242,115 242,248 v 401 c 0,133 -103,253 -240,248 l -1554,-46 c -133,-4 -233,-117 -233,-248 v -286 c 0,-130 99,-242 231,-248 z m -4536,0 1554,69 c 132,6 231,118 231,248 v 286 c 0,131 -100,244 -232,248 l -1555,46 c -137,5 -239,-115 -239,-248 v -401 c 0,-133 103,-254 241,-248 z"
         id="path5214"
         inkscape:connector-curvature="0"
         style="fill:#000000" />
      <path
         class="fil2"
         d="m 12199,5674 -1555,70 c -66,3 -120,60 -120,132 v 286 c 0,73 54,131 120,133 l 1555,46 c 66,2 120,-60 120,-133 v -401 c 0,-73 -54,-135 -120,-133 z m -4547,0 1554,70 c 66,3 120,60 120,132 v 286 c 0,73 -54,131 -120,133 l -1554,46 c -66,2 -121,-60 -121,-133 v -401 c 0,-73 54,-135 121,-133 z"
         id="path5216"
         inkscape:connector-curvature="0"
         style="fill:#ffffff" />
      <path
         class="fil3"
         d="m 9283,7902 h 1346 c 103,0 196,42 263,109 56,56 95,130 106,211 H 8915 c 11,-81 49,-155 105,-211 68,-67 161,-109 263,-109 z m -349,23 c -90,89 -145,213 -145,349 0,182 1,368 2,553 40,11 81,21 122,30 v -512 h 2089 v 489 c 41,-10 82,-22 122,-35 v -525 c 0,-136 -56,-260 -145,-349 -90,-90 -213,-146 -350,-146 H 9283 c -136,0 -260,56 -349,146 z"
         id="path5218"
         inkscape:connector-curvature="0"
         style="fill:#000000" />
      <path
         class="fil6"
         d="m 13174,11412 v 3 l 1,1 v 5 l 1,1 v 4 l 1,1 v 3 l 1,1 v 4 l 1,1 v 3 l 1,1 v 4 l 1,1 v 3 l 1,2 v 4 l 1,1 v 4 l 1,1 v 3 l 1,1 v 4 l 1,1 v 5 l 1,1 v 3 l 1,1 v 4 l 1,1 v 1 l 1304,-1206 c -639,-449 -1371,-917 -1815,-1214 z m -6537,0 -1,1 v 3 l -1,2 v 3 l -1,1 v 4 l -1,1 v 3 l -1,1 v 5 l -1,1 v 3 l -1,2 v 3 l -1,1 v 4 l -1,1 v 3 l -1,1 v 5 l -1,1 v 3 l -1,2 v 3 l -1,1 v 4 l -1,1 v 3 l -1,1 v 5 l -1,1 -1303,-1206 c 638,-449 1370,-917 1814,-1214 z"
         id="path5220"
         inkscape:connector-curvature="0"
         style="fill:#f2d752" />
      <rect
         class="fil3"
         x="9092"
         y="9969"
         width="1631"
         height="1516"
         rx="544"
         ry="505"
         id="rect5222"
         style="fill:#000000" />
      <path
         class="fil2"
         d="m 9636,10077 c -235,0 -428,179 -428,398 v 505 c 0,218 193,398 428,398 h 544 c 235,0 428,-180 428,-398 v -505 c 0,-219 -193,-398 -428,-398 z"
         id="path5224"
         inkscape:connector-curvature="0"
         style="fill:#ffffff" />
    </g>
  </g>
</svg>
