<svg xmlns="http://www.w3.org/2000/svg" id="svg4565" width="13100.519" height="14578.751" fill-rule="evenodd" clip-rule="evenodd" image-rendering="optimizeQuality" shape-rendering="geometricPrecision" text-rendering="geometricPrecision"><defs id="defs4492"><style id="style4485">.fil3{fill:#000}.fil4{fill:#039cb8}.fil5{fill:#d3402a}.fil7{fill:#fad0b8}.fil2{fill:#fff}</style><linearGradient id="id0" x1="9905.07" x2="9905.07" y1="990.51" y2="18819.6" gradientUnits="userSpaceOnUse"><stop id="stop4487" offset="0" stop-color="#f68512"/><stop id="stop4489" offset="1" stop-color="#830e67"/></linearGradient></defs><g id="Layer_x0020_1" transform="translate(-3397.41 -2700.25)"><path id="path4497" d="M7080 14701c-743 94-1494-118-2077-595l-604-494c-564-462-916-1125-988-1850-72-721 144-1446 603-2007l494-604c265-324 602-582 984-755 383-175 806-259 1228-246 232 8 462 44 684 109-147-368-223-762-223-1160v-840c0-64 2-128 6-192-67-28-132-60-193-97-205-123-369-302-461-525-81-195-105-426-39-628 4-10 7-20 11-30-12-19-23-39-33-59-92-185-128-412-64-612 41-127 118-235 225-312-39-215-29-446 67-644 67-141 174-255 307-336 182-109 403-147 612-110 338 61 591 294 783 566 78 110 148 227 212 347 507-331 1098-507 1705-507h840c590 0 1164 166 1662 479 59-110 124-217 197-319 191-272 445-505 782-566 209-37 430 1 613 110 133 80 239 195 307 336 95 198 105 429 66 644 107 77 185 184 226 312 63 200 27 427-65 612-10 20-21 40-32 59 3 10 7 20 10 30 66 202 42 433-38 628-92 223-256 402-461 525-44 27-89 50-136 72 5 72 8 144 8 217v840c0 732-267 1454-737 2015 22 18 44 36 65 53 538 399 1084 786 1610 1200 126 99 252 200 375 303 263 220 678 570 806 890 244 613-83 1284-722 1458-554 152-1160-125-1424-629-41-7-81-14-122-21 64 410 116 822 168 1233 17 134 32 269 45 403 58 588 102 1179 102 1770 0 786-586 1505-1402 1505-556 0-1097-326-1267-871l-230-735H9935l-231 736c-171 544-712 870-1267 870-816 0-1402-719-1402-1505 0-358 20-716 45-1073z"/><g id="_636006944"><path id="path4501" d="M13747 11916c98 543 167 1090 236 1637 16 130 31 266 44 396 53 537 100 1193 100 1740 0 625-456 1211-1107 1211-427 0-856-244-987-664l-294-941-2062-1-296 942c-134 419-560 664-987 664-651 0-1108-586-1108-1211 0-466 39-972 74-1437-743 208-1574 65-2213-458l-604-494c-1041-853-1196-2402-344-3444l494-603c500-611 1239-917 1975-893 328 10 655 86 960 229 174 81 340 208 553 343-47-51-100-114-143-169-393-501-605-1113-605-1749v-840c0-133 9-267 28-399-127-30-250-76-358-141-151-91-273-222-341-386-53-129-75-290-30-425 18-56 47-103 83-141-48-50-90-106-122-170-57-115-87-266-47-391 45-141 162-214 298-230-2-4-3-9-5-14-78-202-114-473-17-674 109-226 363-327 603-284 256 46 450 242 594 446 130 183 247 406 339 626 509-425 1149-662 1819-662h840c650 0 1273 223 1775 626 90-208 201-417 323-590 145-204 338-400 595-446 240-43 494 58 602 284 98 201 61 472-16 674-2 5-4 10-5 14 136 16 253 89 298 230 40 125 10 276-47 391-33 64-74 120-122 170 36 38 65 85 83 141 44 135 23 296-31 425-67 164-190 295-341 386-91 55-194 97-300 127 20 136 30 275 30 413v840c0 713-279 1414-763 1935-34 36-68 71-103 105 93 78 285 242 314 264 537 400 1076 782 1603 1196 124 97 247 195 368 296 207 174 621 522 721 774 180 452-55 937-525 1066-453 124-952-131-1125-566-6-16-12-31-17-47-230-32-460-74-687-121z" class="fil3"/><path id="path4503" fill="#039cb8" d="M10707 9859h418c182 0 360-18 533-51 481-75 926-260 1310-528l89 1460 403 796c19 91 37 182 54 272H9581c170-803-70-1668-685-2266 268 128 557 219 860 266 173 33 351 51 533 51zm3112 4110c-4-34-7-68-11-102H8142c-189 127-346 205-566 314 0 0-51 699-55 765l1975 242c14-42 28-78 39-104h2344c11 25 23 59 37 99l1975-259c-17-303-41-639-72-955z" class="fil4"/><path id="path4505" fill="#d3402a" d="M8016 9056c-463-379-1059-556-1654-496-596 60-1142 349-1522 813l-494 604c-379 463-555 1058-496 1653 60 597 349 1142 814 1522l603 494c463 379 1059 556 1653 496 597-59 1143-348 1523-813l494-604c379-463 555-1058 496-1653-60-596-349-1142-814-1522z" class="fil5"/><path id="path4507" d="M7775 9351c-385-315-881-462-1375-412-496 49-949 289-1265 675l-494 604c-314 384-461 881-412 1374 50 496 289 950 676 1266l603 494c385 314 881 461 1375 412 496-50 949-290 1265-676l494-604c315-384 461-880 412-1374-49-496-289-949-676-1266z" class="fil3"/><path id="path4509" fill="#fff" d="M7715 9424c-365-298-837-437-1305-391-471 47-901 275-1201 642l-494 603c-298 364-438 837-391 1305 47 471 274 901 641 1201l604 494c364 298 836 438 1304 391 471-47 901-274 1202-641l494-604c298-364 437-837 390-1305-47-470-274-901-641-1201z" class="fil2"/><path id="path4511" d="M7473 9719c-285-234-659-344-1025-307-371 37-709 215-945 504l-494 603c-233 286-343 659-307 1026 37 371 215 708 504 945l604 494c285 233 659 343 1025 306 371-37 709-215 945-503l494-604c234-285 343-659 307-1026-37-370-215-708-504-944z" class="fil3"/><path id="path4513" fill="#d3402a" d="M7413 9792c-265-217-615-319-956-285-345 34-660 200-880 469l-494 603c-217 266-320 616-286 956 35 346 200 661 469 881l604 494c265 217 615 320 956 286 345-35 660-200 880-470l494-603c218-266 320-615 286-956-34-346-200-661-469-881z" class="fil5"/><path id="path4515" d="M7172 10087c-187-153-437-226-677-202-245 25-467 141-624 332l-494 604c-153 187-225 436-201 677 24 245 140 467 331 623l604 494c187 154 437 226 677 202 245-25 468-141 624-332l494-603c153-188 225-437 201-677-24-245-140-468-331-624z" class="fil3"/><path id="path4517" fill="#0390aa" d="M7112 10161c-168-138-392-202-607-181-220 22-420 126-560 297l-494 604c-137 168-202 392-180 607 22 220 125 420 297 560l603 494c168 137 392 202 608 180 219-22 419-125 559-297l494-604c138-167 202-392 181-607-22-220-126-419-297-559z"/><path id="polygon4519" d="M6642 10140l397 582 676 198-431 557 21 705-663-238-664 238 21-705-431-557 676-198z" class="fil3"/><path id="polygon4521" d="M10835 9981l317 464 539 158-343 445 16 562-529-189-530 189 17-562-344-445 540-158z" class="fil3"/><path id="path4523" fill="#fff" d="M6642 10294l-326 477c-12 17-27 29-47 35l-554 162 353 456c13 17 19 35 18 56l-17 577 543-195c20-7 39-7 59 0l543 195-17-577c0-21 6-39 18-56l353-456-554-162c-20-6-35-18-47-35z" class="fil2"/><path id="path4525" fill="#fff" d="M10835 10104l-260 380c-9 14-22 23-38 28l-442 129 282 365c10 13 15 28 14 44l-13 461 433-156c16-5 31-5 47 0l434 156-14-461c0-16 4-31 15-44l281-365-442-129c-16-5-28-14-38-28z" class="fil2"/><path id="path4527" fill="#d3402a" d="M13918 15689c0-163-7-396-21-660l-1948 255 284 888c104 328 448 519 787 519 496 0 898-449 898-1002zm-4737 483l283-883-1948-238c-13 255-20 480-20 638 0 553 402 1002 898 1002 339 0 683-191 787-519z" class="fil5"/><path id="path4529" fill="#fff" d="M13775 13579c-66-524-137-1096-241-1666h-463v1729h712zm-1775-1666h-650v1729h650zm-1720 0h-650v1729h650zm-1721 1573c-46 55-94 107-145 156h145z" class="fil2"/><path id="path4531" fill="#039cb8" d="M13908 9944c-282-207-538-392-722-531l64 1044z" class="fil4"/><path id="path4533" fill="#d3402a" d="M15907 11662c-61-153-320-404-662-691-88-74-182-150-280-228l-719 1053c117 20 231 36 340 49 12 4 19 6 21 18 5 48 20 96 39 144 135 339 526 536 874 441s521-447 387-786z" class="fil5"/><path id="path4535" fill="#fff" d="M14133 11777l750-1099c-286-224-598-457-888-670l-738 576 6 100 384 758c8 17 14 32 18 51 14 67 27 133 40 200 145 31 288 59 428 84z" class="fil2"/><path id="path4537" fill="#d3402a" d="M9525 12025v1617h-861v-283l420-513c204-250 351-529 441-821zm860-112h861v1729h-861zm1720 0h861v1729h-861z" class="fil5"/><g id="g4561"><path id="path4539" fill="#039cb8" d="M10277 3539h840c688 0 1316 267 1787 703-4 11-7 21-11 32-79 235-132 486-145 734-6 135-2 284 49 412 52 129 137 192 269 231 168 51 386 63 561 48 27-2 53-5 80-9 29 157 45 319 45 484v840c0 609-210 1172-561 1620-519-608-1273-961-2074-961h-840c-801 0-1555 353-2075 961-350-448-560-1011-560-1620v-840c0-163 15-322 44-477l22 2c175 15 393 3 561-48 132-39 217-102 269-231 51-128 55-277 48-412-12-244-64-492-141-724 475-460 1122-745 1832-745z" class="fil4"/><path id="path4541" d="M9150 5633l249 63c394 100 852 153 852 667v249c0 501-420 723-863 780l-249 31c-138 18-274-4-399-63-300-142-489-467-489-796v-248c0-215 83-418 250-555 183-150 423-186 649-128z" class="fil3"/><path id="path4543" d="M12178 5633l-249 63c-394 100-852 153-852 667v249c0 501 420 723 864 780l249 31c137 18 273-4 398-63 301-142 489-467 489-796v-248c0-215-82-418-250-555-183-150-423-186-649-128z" class="fil3"/><path id="path4545" fill="#fad0b8" d="M9127 5724l249 63c416 106 781 147 781 576v249c0 429-355 632-781 686l-249 32c-426 54-781-336-781-766v-248c0-430 365-697 781-592z" class="fil7"/><path id="path4547" fill="#fad0b8" d="M12201 5724l-248 63c-417 106-781 147-781 576v249c0 429 355 632 781 686l248 32c426 54 781-336 781-766v-248c0-430-364-697-781-592z" class="fil7"/><path id="path4549" fill="#fad0b8" d="M13131 8708c-485-574-1209-940-2014-940h-840c-806 0-1530 366-2014 940 484 575 1208 941 2014 941h840c805 0 1529-366 2014-941z" class="fil7"/><path id="path4551" d="M11695 8873c0-450-447-814-998-814s-998 364-998 814l1 31h1994z" class="fil3"/><path id="path4553" d="M9238 6515l229 305c-66 50-147 76-229 76-211 0-382-171-382-381 0-211 171-382 382-382 159 0 301 98 357 247z" class="fil3"/><path id="path4555" d="M12090 6515l-229 305c67 50 147 76 229 76 211 0 382-171 382-381 0-211-171-382-382-382-158 0-301 98-357 247z" class="fil3"/><path id="path4557" fill="#fff" d="M13093 5561c127 38 333 61 526 44s373-72 504-151 213-181 256-286c43-104 48-211 25-279-22-69-72-101-150-101s-185 32-184 10c2-23 110-98 196-168 86-69 149-133 188-212 39-78 55-172 36-233-20-60-74-87-155-88-81 0-188 25-258 45-70 21-102 37-69-12 32-49 130-165 192-327 62-163 89-374 24-509-66-136-223-196-378-168-154 27-306 143-460 360-153 217-308 536-403 818-96 283-131 529-140 708s9 290 42 373 81 137 208 176zm-4851 0c-127 38-333 61-526 44s-374-72-504-151c-131-79-213-181-256-286-43-104-48-211-25-279 22-69 72-101 150-101s184 32 183 10c-1-23-110-98-195-168-86-69-149-133-188-212-39-78-55-172-36-233 19-60 74-87 155-88 80 0 188 25 257 45 70 21 103 37 70-12s-130-165-192-327c-63-163-89-374-24-509 65-136 223-196 377-168 155 27 307 143 460 360 154 217 309 536 404 818 95 283 131 529 140 708s-9 290-42 373-81 137-208 176z" class="fil2"/><path id="path4559" fill="#fff" d="M11029 5229h-677l-141 312c-16 35-48 56-86 56h-427c-33 0-62-16-80-44-18-29-19-61-5-92l773-1615c16-34 48-54 86-54h426c37 0 68 20 84 53l798 1615c15 30 14 64-4 92-18 29-47 45-81 45h-434c-37 0-70-21-86-55zm-219-462l-127-276-124 276z" class="fil2"/></g></g></g></svg>