<?xml version="1.0" encoding="UTF-8" standalone="no"?>
<svg
   xmlns:dc="http://purl.org/dc/elements/1.1/"
   xmlns:cc="http://creativecommons.org/ns#"
   xmlns:rdf="http://www.w3.org/1999/02/22-rdf-syntax-ns#"
   xmlns:svg="http://www.w3.org/2000/svg"
   xmlns="http://www.w3.org/2000/svg"
   xmlns:sodipodi="http://sodipodi.sourceforge.net/DTD/sodipodi-0.dtd"
   xmlns:inkscape="http://www.inkscape.org/namespaces/inkscape"
   viewBox="0 0 13250.429 15019"
   id="svg6412"
   version="1.1"
   sodipodi:docname="hawkEye.svg"
   width="13250.429"
   height="15019"
   style="clip-rule:evenodd;fill-rule:evenodd;image-rendering:optimizeQuality;shape-rendering:geometricPrecision;text-rendering:geometricPrecision"
   inkscape:version="0.92.1 r15371">
  <metadata
     id="metadata4554">
    <rdf:RDF>
      <cc:Work
         rdf:about="">
        <dc:format>image/svg+xml</dc:format>
        <dc:type
           rdf:resource="http://purl.org/dc/dcmitype/StillImage" />
      </cc:Work>
    </rdf:RDF>
  </metadata>
  <sodipodi:namedview
     pagecolor="#ffffff"
     bordercolor="#666666"
     borderopacity="1"
     objecttolerance="10"
     gridtolerance="10"
     guidetolerance="10"
     inkscape:pageopacity="0"
     inkscape:pageshadow="2"
     inkscape:window-width="1680"
     inkscape:window-height="988"
     id="namedview4552"
     showgrid="false"
     inkscape:zoom="0.011913175"
     inkscape:cx="6582.6299"
     inkscape:cy="7594"
     inkscape:window-x="1912"
     inkscape:window-y="-8"
     inkscape:window-maximized="1"
     inkscape:current-layer="svg6412" />
  <defs
     id="defs6373">
    <style
       id="style6366">
      .fil1,.fil3{fill:#000}.fil4{fill:#fad0b8}
    </style>
    <linearGradient
       id="id0"
       gradientUnits="userSpaceOnUse"
       x1="9905.0703"
       y1="990.51001"
       x2="9905.0703"
       y2="18819.6">
      <stop
         offset="0"
         id="stop6368"
         stop-color="#f68512" />
      <stop
         offset="1"
         id="stop6370"
         stop-color="#830e67" />
    </linearGradient>
  </defs>
  <g
     id="Layer_x0020_1"
     transform="translate(-3322.3701,-2480)">
    <g
       id="_818086512">
      <path
         class="fil1"
         d="m 6445,15165 c -247,-62 -444,-259 -504,-511 l -155,-650 c -566,-298 -1129,-691 -1498,-1220 -293,-421 -441,-897 -411,-1408 -54,-35 -105,-74 -153,-116 -430,-383 -517,-1005 -204,-1483 -202,-436 -243,-904 -151,-1377 124,-639 480,-1233 877,-1741 l -120,-663 c -67,-371 175,-733 547,-804 377,-72 737,181 804,557 l 112,619 519,2456 c 374,-68 749,-131 1124,-197 -152,-209 -279,-436 -378,-676 h -31 c -597,0 -1083,-486 -1083,-1083 v -176 c 0,-518 368,-961 868,-1062 90,-1754 1552,-3150 3316,-3150 h 890 c 1765,0 3226,1396 3316,3151 498,102 865,545 865,1061 v 176 c 0,597 -487,1083 -1084,1083 h -27 c -124,299 -290,578 -494,828 492,329 991,648 1479,983 106,74 212,147 318,222 28,20 56,40 84,61 107,76 213,154 318,234 284,216 726,554 876,881 140,306 145,653 7,961 -134,297 -384,517 -693,619 -664,218 -1137,-65 -1521,-591 -76,-9 -153,-17 -229,-27 -26,-3 -51,-6 -77,-10 81,492 144,987 206,1482 35,271 61,544 83,817 40,497 73,994 73,1493 0,833 -620,1595 -1485,1595 -569,0 -1064,-343 -1313,-847 -49,-99 -83,-204 -116,-308 -38,-119 -74,-238 -109,-357 -19,-66 -38,-131 -58,-196 H 9505 c -20,65 -39,130 -58,196 -35,119 -70,238 -108,357 -34,104 -68,209 -117,308 -249,504 -743,847 -1313,847 -864,0 -1485,-762 -1485,-1595 0,-247 8,-493 21,-739 z"
         id="path6378"
         inkscape:connector-curvature="0"
         style="fill:#000000" />
      <g
         id="g6408">
        <path
           class="fil3"
           d="m 9882,2703 h 889 c 1658,0 3013,1355 3013,3013 v 115 h 85 c 427,0 776,349 776,776 v 176 c 0,428 -349,776 -776,776 h -240 c -145,430 -384,818 -694,1137 l 6,96 142,95 c 521,350 1051,688 1569,1044 107,73 209,144 314,219 l 84,60 c 108,77 203,148 310,229 225,170 665,507 783,764 214,468 -10,998 -502,1160 -599,196 -952,-137 -1251,-587 l -115,-14 c -83,-10 -167,-19 -250,-29 -148,-19 -285,-39 -423,-61 l -69,-11 c 118,624 198,1255 278,1886 34,267 59,536 81,804 39,483 73,984 73,1468 0,665 -486,1288 -1179,1288 -451,0 -839,-277 -1037,-675 -40,-82 -71,-180 -99,-267 -37,-116 -72,-233 -106,-350 -33,-112 -66,-224 -101,-336 -8,-26 -16,-53 -25,-80 H 9236 c -9,27 -18,54 -26,80 -34,112 -67,224 -100,336 -35,117 -69,234 -107,350 -27,87 -59,185 -99,267 -197,398 -585,675 -1037,675 -692,0 -1178,-623 -1178,-1288 0,-349 17,-708 42,-1062 l -15,6 c -19,8 -38,14 -58,19 -206,52 -412,-79 -460,-284 l -189,-787 c -564,-283 -1149,-667 -1511,-1187 -289,-415 -411,-877 -340,-1378 l 4,-30 c -100,-40 -194,-97 -276,-170 -372,-331 -382,-870 -44,-1219 l -15,-27 c -233,-413 -289,-861 -199,-1326 122,-627 502,-1223 903,-1718 l -145,-799 c -37,-206 95,-408 302,-447 209,-40 407,101 445,309 l 113,628 581,2750 4,-1 c 608,-117 1220,-212 1828,-326 l 55,-10 4,-64 C 7409,8377 7169,7989 7025,7559 h -244 c -427,0 -776,-348 -776,-776 v -176 c 0,-427 349,-776 776,-776 h 88 V 5716 C 6869,4058 8224,2703 9882,2703 Z M 6815,13779 c 9,-78 18,-155 28,-232 91,-726 183,-1452 334,-2169 -305,-58 -608,-122 -910,-195 z m -1882,-2661 -17,100 c -54,317 19,599 202,862 220,315 572,575 928,780 l -388,-1836 -116,-35 c -94,-28 -186,-57 -278,-88 -13,12 -26,25 -39,37 -86,77 -185,138 -292,180 z M 5275,9210 4899,7431 c -239,335 -453,716 -526,1093 -57,293 -22,568 132,825 l 26,44 c 139,-41 279,-76 411,-108 110,-26 221,-51 332,-75 z"
           id="path6382"
           inkscape:connector-curvature="0"
           style="fill:#000000" />
        <path
           class="fil4"
           d="m 13562,6298 v 307 c 0,1535 -1256,2790 -2791,2790 H 9882 C 8347,9395 7092,8140 7092,6605 v -308 l 100,-210 c 329,-688 986,-1179 1763,-1179 489,0 942,196 1295,532 l 77,73 76,-73 c 353,-336 806,-532 1296,-532 776,0 1433,491 1762,1179 z"
           id="path6384"
           inkscape:connector-curvature="0"
           style="fill:#fad0b8" />
        <path
           class="fil4"
           d="m 13784,6054 h 85 c 304,0 553,249 553,553 v 176 c 0,305 -249,554 -553,554 h -175 c 59,-235 90,-480 90,-732 z m -7003,0 h 88 v 551 c 0,252 32,497 91,732 h -179 c -304,0 -553,-249 -553,-554 v -176 c 0,-304 249,-553 553,-553 z"
           id="path6386"
           inkscape:connector-curvature="0"
           style="fill:#fad0b8" />
        <path
           class="fil4"
           d="m 7700,8989 c -427,80 -1140,194 -1827,326 l 343,1627 c 346,85 705,162 1052,227 l 340,-673 z m -2379,439 c -113,24 -222,49 -327,74 -323,78 -600,159 -781,241 l -1,1 c -28,13 -56,26 -82,41 l -25,14 c -27,16 -49,32 -67,48 -289,260 -290,677 -4,932 112,100 251,160 396,181 h 2 l 14,2 h 3 l 1,1 h 4 l 9,1 6,1 h 8 l 4,1 h 8 l 4,1 h 15 l 4,1 h 20 c 45,1 89,-2 133,-8 l 14,-2 c 145,-23 285,-85 397,-186 47,-42 86,-89 118,-138 l 15,13 c 126,44 259,87 397,128 z m 7637,-356 c 376,252 992,646 1568,1043 l -889,1337 c -50,-8 -100,-16 -150,-25 -5,-24 -10,-47 -15,-71 l -6,-28 -420,-832 z m 1879,1260 c 28,20 55,39 83,59 l -755,1134 c -37,-4 -74,-9 -112,-14 z m 389,284 c 366,278 643,524 714,679 161,353 -4,736 -368,856 -365,120 -791,-69 -953,-422 -20,-44 -35,-89 -45,-133 z"
           id="path6388"
           inkscape:connector-curvature="0"
           style="fill:#fad0b8" />
        <path
           d="m 11238,9582 c 561,-89 1072,-333 1486,-687 l 102,1660 428,848 c 123,582 208,1177 281,1737 H 7119 c 72,-560 157,-1155 280,-1737 l 428,-848 102,-1660 c 414,354 925,598 1486,687 v 12 c 0,8 -1,16 -1,24 0,504 409,912 913,912 504,0 912,-408 912,-912 v -24 z m 2317,3715 c 12,94 23,187 35,278 61,481 106,1074 131,1562 h -18 l -2045,283 c -33,-105 -62,-192 -85,-244 H 9080 c -23,52 -52,140 -85,246 l -2060,-285 h -2 c 25,-488 70,-1081 131,-1562 11,-91 23,-184 35,-278 z m -4606,2276 c -87,292 -185,639 -245,760 -162,328 -476,552 -837,552 -528,0 -955,-477 -955,-1066 0,-136 4,-317 14,-525 z m 4779,-280 c 9,208 14,390 14,526 0,589 -428,1066 -956,1066 -360,0 -674,-224 -837,-552 -60,-122 -158,-470 -245,-762 l 2012,-278 z"
           id="path6390"
           inkscape:connector-curvature="0"
           style="fill:#363133" />
        <path
           d="m 9882,2926 c -1535,0 -2790,1255 -2790,2790 v 323 c 353,-739 1055,-1242 1863,-1242 524,0 1003,212 1372,562 368,-350 848,-562 1372,-562 808,0 1510,503 1863,1242 v -323 c 0,-1535 -1256,-2790 -2791,-2790 z"
           id="path6392"
           inkscape:connector-curvature="0"
           style="fill:#92511a" />
        <path
           class="fil3"
           d="m 11990,6058 -851,622 -3,-272 -170,-19 19,564 297,-187 c -11,37 -16,76 -16,117 0,248 201,450 449,450 98,0 192,-32 270,-90 l -270,-360 421,-158 c -56,-150 -187,-256 -340,-284 l 379,-239 z m -3288,0 851,622 4,-272 169,-19 -18,564 -365,-230 1,2 -421,158 270,360 c -78,58 -173,90 -270,90 -248,0 -449,-202 -449,-450 0,-236 182,-430 413,-448 l -369,-233 z"
           id="path6394"
           inkscape:connector-curvature="0"
           style="fill:#000000" />
        <path
           class="fil3"
           d="m 10327,7877 c -538,0 -974,356 -974,795 v 30 h 1947 l 1,-30 c 0,-439 -436,-795 -974,-795 z"
           id="path6396"
           inkscape:connector-curvature="0"
           style="fill:#000000" />
        <path
           d="m 5028,6393 1641,7770 49,207 c 20,82 1,155 -86,186 -9,4 -18,8 -28,10 -84,21 -169,-32 -190,-119 l -212,-890 c -721,-349 -1225,-736 -1521,-1161 -265,-380 -364,-787 -302,-1219 105,18 212,19 318,4 -62,364 16,707 238,1026 268,384 740,741 1427,1069 L 5018,6916 c -489,585 -774,1106 -864,1566 -70,362 -16,689 159,981 -106,38 -208,81 -292,128 -198,-352 -258,-742 -174,-1175 99,-511 404,-1076 921,-1698 l -163,-901 c -16,-88 40,-172 125,-189 85,-16 167,43 183,131 z"
           id="path6398"
           inkscape:connector-curvature="0"
           style="fill:#363133;fill-rule:nonzero" />
        <path
           class="fil3"
           d="m 15010,10456 -720,1083 c 60,6 119,11 177,16 l 669,-1006 c -41,-31 -83,-62 -126,-93 z m -392,-278 -860,1293 c 58,8 115,17 172,24 l 816,-1227 c -42,-30 -85,-60 -128,-90 z"
           id="path6400"
           inkscape:connector-curvature="0"
           style="fill:#000000" />
        <path
           class="fil4"
           d="m 9526,9618 c 0,442 358,801 801,801 442,0 801,-359 801,-801 0,-7 0,-14 -1,-21 -116,14 -235,21 -356,21 h -889 c -120,0 -239,-7 -356,-21 z"
           id="path6402"
           inkscape:connector-curvature="0"
           style="fill:#fad0b8" />
        <path
           class="fil1"
           d="m 8772,10059 c 298,0 539,242 539,539 0,298 -241,539 -539,539 -297,0 -539,-241 -539,-539 0,-297 242,-539 539,-539 z"
           id="path6404"
           inkscape:connector-curvature="0"
           style="fill:#000000" />
        <path
           d="m 8772,10171 c 236,0 428,191 428,427 0,236 -192,428 -428,428 -236,0 -427,-192 -427,-428 0,-236 191,-427 427,-427 z"
           id="path6406"
           inkscape:connector-curvature="0"
           style="fill:#ffffff" />
      </g>
    </g>
  </g>
</svg>
