<?xml version="1.0" encoding="UTF-8" standalone="no"?>
<svg
   xmlns:dc="http://purl.org/dc/elements/1.1/"
   xmlns:cc="http://creativecommons.org/ns#"
   xmlns:rdf="http://www.w3.org/1999/02/22-rdf-syntax-ns#"
   xmlns:svg="http://www.w3.org/2000/svg"
   xmlns="http://www.w3.org/2000/svg"
   xmlns:sodipodi="http://sodipodi.sourceforge.net/DTD/sodipodi-0.dtd"
   xmlns:inkscape="http://www.inkscape.org/namespaces/inkscape"
   viewBox="0 0 14026.176 15449.047"
   id="svg4635"
   version="1.1"
   sodipodi:docname="thor.svg"
   width="14026.176"
   height="15449.047"
   style="clip-rule:evenodd;fill-rule:evenodd;image-rendering:optimizeQuality;shape-rendering:geometricPrecision;text-rendering:geometricPrecision"
   inkscape:version="0.92.1 r15371">
  <metadata
     id="metadata6269">
    <rdf:RDF>
      <cc:Work
         rdf:about="">
        <dc:format>image/svg+xml</dc:format>
        <dc:type
           rdf:resource="http://purl.org/dc/dcmitype/StillImage" />
      </cc:Work>
    </rdf:RDF>
  </metadata>
  <sodipodi:namedview
     pagecolor="#ffffff"
     bordercolor="#666666"
     borderopacity="1"
     objecttolerance="10"
     gridtolerance="10"
     guidetolerance="10"
     inkscape:pageopacity="0"
     inkscape:pageshadow="2"
     inkscape:window-width="1680"
     inkscape:window-height="988"
     id="namedview6267"
     showgrid="false"
     inkscape:zoom="0.011913175"
     inkscape:cx="6970.6795"
     inkscape:cy="7809"
     inkscape:window-x="1912"
     inkscape:window-y="-8"
     inkscape:window-maximized="1"
     inkscape:current-layer="svg4635" />
  <defs
     id="defs4578">
    <style
       id="style4571">
      .fil3{fill:#000}.fil13{fill:#d3402a}.fil4{fill:#fad0b8}.fil2{fill:#fff}
    </style>
    <linearGradient
       id="id0"
       gradientUnits="userSpaceOnUse"
       x1="9905.0703"
       y1="990.51001"
       x2="9905.0703"
       y2="18819.6">
      <stop
         offset="0"
         id="stop4573"
         stop-color="#f68512" />
      <stop
         offset="1"
         id="stop4575"
         stop-color="#830e67" />
    </linearGradient>
  </defs>
  <g
     id="Layer_x0020_1"
     transform="translate(-2934.3205,-2264.9533)">
    <path
       d="m 7753,11986 c -416,-393 -846,-771 -1266,-1160 -231,-213 -461,-429 -686,-649 -162,-159 -323,-320 -475,-490 -237,-263 -611,-680 -694,-1026 -82,-337 -10,-696 205,-968 l -95,-1568 c -271,16 -543,33 -814,49 -202,12 -399,-49 -559,-171 -207,-157 -335,-399 -351,-658 l -82,-1355 c -16,-258 83,-515 268,-695 145,-141 333,-226 535,-238 271,-16 542,-33 814,-49 -11,-180 51,-356 170,-490 120,-136 288,-219 469,-230 l 357,-22 c 180,-10 357,52 492,171 135,120 218,287 230,467 l 978,-60 c 202,-12 398,49 559,172 207,157 335,399 351,657 l 46,766 c 548,-737 1388,-1216 2311,-1297 l 246,-508 c 88,-180 266,-292 466,-292 200,0 378,112 465,292 l 247,508 c 1155,102 2170,825 2652,1873 120,-198 248,-315 485,-452 6,-4 12,-7 18,-10 l 762,-402 c 308,-162 684,-218 942,67 200,219 196,520 87,781 -77,183 -201,353 -342,492 -34,34 -68,67 -102,101 -56,53 -111,106 -167,159 33,94 47,194 38,295 -24,276 -199,474 -421,615 26,125 18,251 -28,373 -79,208 -241,339 -442,412 -5,97 -29,192 -72,280 -63,128 -160,226 -276,304 241,710 284,1440 116,2172 43,39 86,77 129,115 257,232 512,467 758,711 251,250 647,647 749,987 196,651 -198,1309 -870,1432 -430,79 -870,-85 -1162,-397 41,290 78,580 114,870 34,264 59,529 80,794 39,482 72,965 72,1449 0,810 -604,1551 -1445,1551 -553,0 -1034,-333 -1276,-823 -48,-97 -81,-198 -113,-300 -37,-115 -71,-231 -106,-347 -18,-63 -37,-126 -55,-188 h -1674 c -19,62 -38,125 -56,188 -34,116 -68,232 -105,347 -33,102 -66,203 -114,300 -242,490 -723,823 -1276,823 -841,0 -1444,-741 -1444,-1551 0,-484 32,-967 71,-1449 21,-265 47,-530 80,-794 81,-643 112,-1292 206,-1934 z"
       id="path4583"
       inkscape:connector-curvature="0" />
    <g
       id="_637500560">
      <path
         class="fil3"
         d="m 11704,3348 c 1384,41 2534,1054 2786,2377 l 214,-445 c 136,-282 210,-384 481,-541 3,-2 6,-3 8,-5 l 762,-401 c 176,-93 422,-171 579,2 118,130 94,314 32,463 -61,146 -164,284 -276,395 -33,33 -66,65 -100,98 -104,101 -210,200 -318,297 -6,6 -13,12 -20,18 78,92 130,202 119,329 -22,244 -261,399 -501,500 79,126 123,267 70,408 -72,192 -280,263 -490,286 37,127 47,259 -13,380 -70,142 -222,228 -380,293 308,753 378,1533 179,2327 -8,31 -16,61 -25,92 88,78 176,157 264,235 254,228 505,460 747,701 198,197 593,592 674,860 144,481 -140,959 -636,1049 -477,88 -967,-218 -1106,-682 -5,-16 -9,-33 -13,-50 -137,-31 -273,-65 -409,-102 97,544 166,1093 235,1641 33,259 58,520 79,780 38,469 71,956 71,1425 0,645 -472,1251 -1144,1251 -438,0 -815,-269 -1007,-656 -39,-80 -69,-175 -96,-259 -36,-113 -70,-226 -103,-340 -32,-108 -64,-217 -98,-326 -8,-25 -16,-51 -24,-78 h -2119 c -8,27 -16,53 -24,78 -34,109 -66,218 -98,326 -34,114 -67,227 -103,340 -27,84 -57,179 -97,259 -191,387 -568,656 -1006,656 -672,0 -1144,-606 -1144,-1251 0,-469 33,-956 71,-1425 21,-260 46,-521 78,-780 85,-674 115,-1366 223,-2039 6,-38 -2,-51 -96,-140 -420,-397 -856,-781 -1281,-1173 -229,-212 -457,-425 -679,-643 -157,-154 -316,-313 -463,-477 -186,-207 -559,-623 -625,-895 -74,-303 20,-597 221,-791 L 4982,5722 c -372,22 -744,45 -1115,67 -315,19 -572,-237 -591,-547 l -82,-1355 c -19,-310 205,-595 521,-614 370,-23 742,-45 1114,-68 l -18,-298 c -13,-210 148,-391 357,-403 l 357,-22 c 209,-13 390,148 403,357 l 18,299 c 427,-26 853,-52 1279,-78 315,-19 572,237 591,547 l 82,1355 c 11,173 -55,339 -169,454 l 151,314 C 8130,4405 9281,3389 10667,3348 l 324,-668 c 37,-76 109,-121 194,-121 85,0 158,45 195,121 z M 6220,7647 c 204,134 361,342 421,587 4,17 7,34 10,51 146,41 296,89 439,137 131,44 262,91 393,139 49,-256 125,-509 227,-759 -157,-64 -311,-151 -380,-293 -60,-121 -51,-253 -13,-380 -210,-23 -418,-94 -490,-286 -53,-141 -9,-282 69,-408 -239,-101 -479,-256 -500,-500 -10,-116 32,-218 99,-305 l -396,24 z"
         id="path4587"
         inkscape:connector-curvature="0"
         style="fill:#000000" />
      <path
         class="fil4"
         d="m 14325,6655 v 479 c 0,1490 -1218,2709 -2708,2709 h -863 C 9264,9843 8045,8624 8045,7134 v -479 z"
         id="path4589"
         inkscape:connector-curvature="0"
         style="fill:#fad0b8" />
      <path
         class="fil4"
         d="m 14741,10448 c 254,226 513,461 745,683 l -941,872 c -16,15 -27,33 -32,53 -74,-19 -149,-40 -224,-61 -16,-83 -33,-166 -50,-249 -4,-19 -10,-35 -19,-52 l -395,-783 -79,-1278 c 111,150 206,310 289,479 86,174 158,356 224,539 31,86 108,142 199,144 92,1 171,-51 205,-136 28,-70 54,-140 78,-211 z m 1102,1039 c 237,249 406,460 445,592 109,361 -100,708 -467,775 -366,67 -751,-171 -860,-532 -7,-22 -12,-44 -16,-66 l 3,-1 c 22,-3 40,-11 56,-26 l 835,-739 z"
         id="path4591"
         inkscape:connector-curvature="0"
         style="fill:#fad0b8" />
      <path
         class="fil4"
         d="M 8079,11537 C 7653,11135 6764,10353 6121,9723 l 900,-1096 c 140,47 283,98 427,153 -56,443 -30,894 84,1349 20,81 43,163 69,243 31,97 65,192 103,287 34,85 113,137 205,136 92,-2 169,-58 200,-144 65,-183 137,-365 223,-539 60,-121 125,-237 198,-349 l -434,1692 c -1,3 -1,6 -2,9 -5,24 -10,49 -15,73 z M 5772,9369 c -37,-38 -71,-76 -104,-112 -308,-343 -536,-637 -576,-802 -89,-366 139,-701 509,-748 369,-47 741,212 830,578 13,56 19,111 19,165 z"
         id="path4593"
         inkscape:connector-curvature="0"
         style="fill:#fad0b8" />
      <path
         d="m 14486,15550 c 9,209 14,392 14,528 0,571 -415,1034 -927,1034 -350,0 -655,-216 -813,-535 -36,-73 -86,-229 -139,-405 l 4,-1 z m -4736,621 c -53,176 -104,333 -140,406 -157,319 -462,535 -812,535 -512,0 -928,-463 -928,-1034 0,-136 5,-320 15,-530 z"
         id="path4595"
         inkscape:connector-curvature="0"
         style="fill:#ead44d" />
      <path
         d="m 12104,10018 c 81,-14 162,-31 242,-52 l -82,489 c -8,47 15,91 57,113 42,22 92,15 126,-18 l 1074,-1052 90,1471 416,822 c 86,408 153,823 210,1227 H 8108 c 49,-516 105,-1069 197,-1509 l 523,-2035 1100,1076 c 34,33 83,40 126,18 42,-22 64,-66 56,-113 l -81,-487 c 115,29 232,52 351,67 -2,23 3,46 15,67 177,297 497,480 844,480 352,0 676,-189 851,-494 13,-22 17,-46 14,-70 z"
         id="path4597"
         inkscape:connector-curvature="0"
         style="fill:#2d448a" />
      <path
         d="m 15768,11409 -835,739 -19,3 c -96,-20 -195,-43 -296,-68 l 946,-877 c 36,35 71,70 106,104 33,34 66,67 98,99 z"
         id="path4599"
         inkscape:connector-curvature="0"
         style="fill:#d3402a" />
      <path
         d="M 14252,13126 H 8098 c -27,282 -52,549 -80,774 l 1957,1554 h 2420 l 1958,-1554 c -32,-249 -64,-509 -101,-774 z"
         id="path4601"
         inkscape:connector-curvature="0"
         style="fill:#2d448a" />
      <path
         d="m 11996,10034 c -124,17 -251,25 -379,25 h -863 c -90,0 -178,-4 -266,-12 153,256 432,427 751,427 324,0 607,-177 757,-440 z"
         id="path4603"
         inkscape:connector-curvature="0"
         style="fill:#fad0b8" />
      <path
         class="fil3"
         d="m 10204,10595 h 324 c 198,0 360,162 360,360 v 325 c 0,198 -162,360 -360,360 h -324 c -198,0 -360,-162 -360,-360 v -325 c 0,-198 162,-360 360,-360 z m 145,1323 h 255 c 156,0 284,128 284,284 v 255 c 0,156 -128,284 -284,284 h -255 c -156,0 -283,-128 -283,-284 v -255 c 0,-156 127,-284 283,-284 z"
         id="path4605"
         inkscape:connector-curvature="0"
         style="fill:#000000" />
      <path
         class="fil3"
         d="m 12269,10595 h -324 c -198,0 -360,162 -360,360 v 325 c 0,198 162,360 360,360 h 324 c 199,0 361,-162 361,-360 v -325 c 0,-198 -162,-360 -361,-360 z m -145,1323 h -255 c -156,0 -284,128 -284,284 v 255 c 0,156 128,284 284,284 h 255 c 156,0 284,-128 284,-284 v -255 c 0,-156 -128,-284 -284,-284 z"
         id="path4607"
         inkscape:connector-curvature="0"
         style="fill:#000000" />
      <path
         class="fil2"
         d="m 10204,10703 c -138,0 -252,114 -252,252 v 325 c 0,138 114,252 252,252 h 324 c 138,0 252,-114 252,-252 v -325 c 0,-138 -114,-252 -252,-252 z m 145,1323 c -96,0 -175,80 -175,176 v 255 c 0,96 79,176 175,176 h 255 c 97,0 176,-80 176,-176 v -255 c 0,-96 -79,-176 -176,-176 z"
         id="path4609"
         inkscape:connector-curvature="0"
         style="fill:#ffffff" />
      <path
         class="fil2"
         d="m 12269,10703 c 139,0 252,114 252,252 v 325 c 0,138 -113,252 -252,252 h -324 c -138,0 -252,-114 -252,-252 v -325 c 0,-138 114,-252 252,-252 z m -145,1323 c 97,0 176,80 176,176 v 255 c 0,96 -79,176 -176,176 h -255 c -96,0 -176,-80 -176,-176 v -255 c 0,-96 80,-176 176,-176 z"
         id="path4611"
         inkscape:connector-curvature="0"
         style="fill:#ffffff" />
      <path
         d="m 14481,15437 c -22,-436 -61,-962 -113,-1411 l -1906,1512 c -29,24 -27,22 -19,44 43,129 95,311 147,486 z m -6587,0 c 21,-436 60,-962 112,-1411 l 1906,1512 c 20,16 28,18 25,30 -36,132 -99,318 -153,500 z"
         id="path4613"
         inkscape:connector-curvature="0"
         style="fill:#069cc8" />
      <path
         d="M 14325,6547 H 8045 v -276 c 0,-1490 1219,-2708 2709,-2708 h 49 l 183,-376 199,-412 200,412 183,376 h 49 c 1490,0 2708,1218 2708,2708 z"
         id="path4615"
         inkscape:connector-curvature="0"
         style="fill:#bbbcc0" />
      <path
         class="fil3"
         d="m 11263,8240 c 629,0 1140,416 1140,930 0,12 0,24 -1,36 h -2279 c 0,-12 -1,-24 -1,-36 0,-514 511,-930 1141,-930 z m -1884,-1363 826,604 3,-264 165,-18 -18,547 -382,-241 -401,151 262,349 c -76,57 -168,87 -262,87 -241,0 -436,-195 -436,-436 0,-225 171,-411 390,-434 l -326,-206 z m 3753,1 -891,503 28,-264 -162,-37 -47,546 268,-128 c -25,55 -38,116 -38,180 0,241 195,436 436,436 94,0 186,-31 262,-87 l -262,-349 408,-154 c -51,-135 -163,-233 -298,-268 l 458,-219 z"
         id="path4617"
         inkscape:connector-curvature="0"
         style="fill:#000000" />
      <path
         d="m 7742,10076 c -191,-759 -124,-1506 189,-2243 121,488 365,928 696,1286 61,94 55,101 -56,230 -179,209 -318,433 -433,667 -90,183 -165,371 -233,562 -36,-90 -69,-181 -98,-272 -24,-77 -46,-153 -65,-230 z m 6884,0 c 190,-759 123,-1506 -190,-2243 -120,488 -364,928 -696,1286 -39,86 -55,101 56,230 179,209 318,433 433,667 90,183 165,371 234,562 36,-90 68,-181 97,-272 25,-77 47,-153 66,-230 z"
         id="path4619"
         inkscape:connector-curvature="0"
         style="fill:#ead44d" />
      <path
         class="fil13"
         d="m 6911,8590 c -120,-39 -238,-75 -352,-107 l -711,966 c 61,63 127,130 196,198 z"
         id="path4621"
         inkscape:connector-curvature="0"
         style="fill:#d3402a" />
      <path
         d="m 14538,6124 360,-750 c 140,-289 199,-334 396,-448 l 762,-402 c 484,-255 411,190 82,515 -243,241 -526,500 -621,563 449,295 239,533 -409,732 389,392 331,612 -385,587 252,473 159,564 -218,706 l -5,-1 c 27,-160 42,-324 42,-492 v -863 c 0,-49 -2,-98 -4,-147 z m -6709,0 -282,-586 c -52,21 -109,35 -170,38 l -538,33 c -434,292 -223,528 420,725 -389,392 -331,612 385,587 -252,473 -159,564 218,706 3,0 5,-1 8,-2 -27,-160 -41,-324 -41,-491 v -863 c 0,-42 1,-83 3,-124 z"
         id="path4623"
         inkscape:connector-curvature="0"
         style="fill:#ffffff" />
      <path
         d="m 8267,5514 c -75,244 -114,498 -114,757 v 168 h 6064 v -168 c 0,-259 -38,-513 -113,-757 z"
         id="path4625"
         inkscape:connector-curvature="0"
         style="fill:#9a9a9c" />
      <path
         d="m 3728,3489 145,-9 126,2084 -145,9 c -187,12 -350,-143 -362,-344 l -82,-1355 c -12,-200 131,-374 318,-385 z m 3510,-213 -145,9 126,2084 145,-9 c 187,-11 331,-184 318,-385 l -82,-1355 c -12,-201 -175,-356 -362,-344 z m -260,16 -1484,90 -22,1 -1485,90 127,2085 1484,-91 22,-1 1485,-90 z"
         id="path4627"
         inkscape:connector-curvature="0"
         style="fill:#bbbcc0" />
      <path
         d="m 5181,2720 357,-22 c 90,-5 169,64 174,154 l 18,299 -685,41 -18,-298 c -6,-90 64,-169 154,-174 z m 702,2947 113,1871 c -134,-46 -278,-64 -423,-45 -95,12 -183,39 -263,77 L 5198,5708 Z"
         id="path4629"
         inkscape:connector-curvature="0"
         style="fill:#78481c" />
      <path
         class="fil13"
         d="m 10004,10472 -90,-537 C 9538,9822 9192,9634 8896,9389 Z m 2457,-538 c 386,-117 739,-313 1041,-568 l -1131,1106 z"
         id="path4631"
         inkscape:connector-curvature="0"
         style="fill:#d3402a" />
    </g>
  </g>
</svg>
